<?xml version="1.0" encoding="utf-8"?>
<!-- Generator: Adobe Illustrator 22.0.1, SVG Export Plug-In . SVG Version: 6.00 Build 0)  -->
<svg version="1.1"
	 id="svg4672" inkscape:output_extension="org.inkscape.output.svg.inkscape" inkscape:version="0.45.1" sodipodi:docbase="/home/alerante/Desktop" sodipodi:docname="PublicInformationSymbol EmergencyExit.svg" sodipodi:version="0.32" xmlns:cc="http://web.resource.org/cc/" xmlns:dc="http://purl.org/dc/elements/1.1/" xmlns:inkscape="http://www.inkscape.org/namespaces/inkscape" xmlns:rdf="http://www.w3.org/1999/02/22-rdf-syntax-ns#" xmlns:sodipodi="http://sodipodi.sourceforge.net/DTD/sodipodi-0.dtd" xmlns:svg="http://www.w3.org/2000/svg"
	 xmlns="http://www.w3.org/2000/svg" xmlns:xlink="http://www.w3.org/1999/xlink" x="0px" y="0px" viewBox="0 0 599.9 600"
	 style="enable-background:new 0 0 599.9 600;" xml:space="preserve">
<style type="text/css">
	.st0{fill:#7F54A3;}
	.st1{fill:#FFFFFF;}
</style>
<sodipodi:namedview  bordercolor="#666666" borderopacity="1.0" gridtolerance="10000" guidetolerance="10" id="base" inkscape:current-layer="layer1" inkscape:cx="265.57143" inkscape:cy="323.42857" inkscape:document-units="px" inkscape:pageopacity="0.0" inkscape:pageshadow="2" inkscape:window-height="624" inkscape:window-width="814" inkscape:window-x="5" inkscape:window-y="48" inkscape:zoom="1" objecttolerance="10" pagecolor="#ffffff">
	</sodipodi:namedview>
<g id="layer1" transform="translate(-310.97085,3.6021267)" inkscape:groupmode="layer" inkscape:label="Layer 1">
	<g id="g5653" transform="matrix(4.6848915,0,0,4.6848915,-1145.8937,-2197.6612)">
		<path id="path3495" class="st0" d="M423,565.9l-3.2-8.5c-1.4-3.5-4.6-5.9-8.6-5.9h-1.4v-73.2h-69.5v40.5h9.1l10.4-13
			c2.1-2.4,5.3-4,8.8-4h22.2c3.5,0,6.6,1.9,8.2,5l6.6,12.5c0.3,0.5,0.5,1.1,0.5,1.9c0,2.2-1.9,4.2-4.2,4.2c-1.8,0-3-0.8-3.8-2.2
			l-5.9-11.4h-9.6l7.4,18.4l2.2,23.5h19c3,0,5.4,1.9,6.6,4.5l2.1,5.4h-32.8c-2.4,0-4.5-1.8-4.6-4.2l-2.2-20.6l-17.6,36.5
			c-1,2.1-3.2,3.5-5.8,3.5h-8.5l21.6-44.7l-6.7-16.8l-6.4,7.8c-1.6,2.1-4.3,3.5-7.2,3.5h-9.4v52.8l15,14.9H311V468.4h128.1v128.1
			h-14.4l-14.9-14.9v-15.7H423"/>
		<path id="path3497" class="st0" d="M363.1,483.1h0.5h0.5l0.5,0.1l0.4,0.1l0.4,0.1l0.4,0.1l0.4,0.2l0.4,0.2l0.4,0.2l0.4,0.2
			l0.4,0.2l0.4,0.2l0.3,0.3l0.3,0.3l0.3,0.3l0.3,0.3l0.3,0.3l0.3,0.3l0.3,0.3l0.3,0.4l0.2,0.4l0.2,0.4l0.2,0.4l0.2,0.4l0.2,0.4
			l0.1,0.4l0.1,0.4l0.1,0.4l0.1,0.4l0.1,0.5v0.5v0.5c0,5-4.2,9-9.1,9c-5,0-9-4-9-9S358.2,483.1,363.1,483.1z"/>
		<path id="path3499" class="st0" d="M367.1,584.9l11.5,11.5h-13.9l-15-14.9h9C361.8,581.5,364.9,582.8,367.1,584.9z"/>
	</g>
</g>
<g>
	<path class="st1" d="M322.2,197.3c-3.6-1.6-7.2-1.7-10.9-0.3c-3.7,1.4-6.3,3.9-8,7.4c-1.6,3.6-1.7,7.2-0.3,10.9
		c0.9,2.4,2.3,4.4,4.3,6c2,1.6,4.2,2.6,6.7,3c0.9,2.4,1.5,4.6,1.8,6.6c0.3,2,0.2,3.8-0.1,5.5c-0.4,1.7-0.9,3.2-1.5,4.6
		c-0.6,1.3-1.6,2.8-3.1,4.3c-1.4,1.5-2.8,2.8-4.1,4c-1.3,1.1-3.1,2.6-5.3,4.3c-4.1,3.2-7.1,5.8-9.2,7.9L279.6,227
		c1.6-1.9,2.6-4.1,3-6.6c0.4-2.5,0.2-5-0.7-7.4c-1.4-3.7-3.9-6.3-7.4-8c-3.6-1.6-7.2-1.7-10.9-0.4c-3.7,1.4-6.4,3.9-8,7.4
		c-1.6,3.6-1.7,7.2-0.4,10.9c0.9,2.4,2.3,4.4,4.3,6c2,1.6,4.2,2.6,6.7,3l21.3,56.8c-1.6,1.9-2.6,4.1-3,6.6c-0.4,2.5-0.2,5,0.7,7.4
		c1.4,3.7,3.9,6.3,7.4,8c3.6,1.6,7.2,1.7,10.9,0.4c3.7-1.4,6.3-3.9,8-7.4c1.6-3.6,1.7-7.2,0.4-10.9c-0.9-2.4-2.3-4.4-4.3-6
		c-2-1.6-4.2-2.6-6.7-3l-0.7-1.8c-1.2-3.2-1.1-5.9,0.3-8c1.4-2.2,4.7-5.3,9.9-9.3c5.5-4.3,9.5-7.9,12-10.9
		c8.1-9.7,9.8-21.3,4.9-34.5c1.6-1.9,2.6-4.1,3-6.6c0.4-2.5,0.2-5-0.7-7.4C328.2,201.5,325.7,198.9,322.2,197.3z M305,300.7
		c-0.8,1.8-2.1,3-4,3.7c-1.8,0.7-3.7,0.6-5.4-0.2c-1.8-0.8-3-2.1-3.7-4c-0.7-1.8-0.6-3.7,0.2-5.4c0.8-1.8,2.1-3,4-3.7
		c1.8-0.7,3.7-0.6,5.4,0.2c1.8,0.8,3,2.1,3.7,4C305.9,297.1,305.8,298.9,305,300.7z M275.1,220.9c-0.8,1.8-2.1,3-4,3.7
		c-1.8,0.7-3.7,0.6-5.4-0.2c-1.8-0.8-3-2.1-3.7-4c-0.7-1.8-0.6-3.7,0.2-5.4c0.8-1.8,2.1-3,4-3.7c1.8-0.7,3.7-0.6,5.4,0.2
		c1.8,0.8,3,2.1,3.7,4C276,217.3,275.9,219.1,275.1,220.9z M322.8,213.2c-0.8,1.8-2.1,3-4,3.7c-1.8,0.7-3.7,0.6-5.4-0.2
		c-1.8-0.8-3-2.1-3.7-4c-0.7-1.8-0.6-3.7,0.2-5.4c0.8-1.8,2.1-3,4-3.7c1.8-0.7,3.7-0.6,5.4,0.2c1.8,0.8,3,2.1,3.7,4
		C323.6,209.6,323.6,211.4,322.8,213.2z"/>
</g>
</svg>
