<?xml version="1.0" standalone="no"?>
<!DOCTYPE svg PUBLIC "-//W3C//DTD SVG 20010904//EN"
 "http://www.w3.org/TR/2001/REC-SVG-20010904/DTD/svg10.dtd">
<svg version="1.0" xmlns="http://www.w3.org/2000/svg"
 width="512.000000pt" height="512.000000pt" viewBox="0 0 512.000000 512.000000"
 preserveAspectRatio="xMidYMid meet">
<metadata>
Created by potrace 1.11, written by Peter Selinger 2001-2013
</metadata>
<g transform="translate(0.000000,512.000000) scale(0.100000,-0.100000)"
fill="#000000" stroke="none">
<path d="M0 2565 c0 -2035 3 -2557 12 -2560 7 -3 364 -4 792 -3 l779 3 -296
295 -297 294 0 1072 0 1071 214 1 c232 0 256 3 331 39 62 29 93 57 175 158 36
44 70 85 75 91 6 7 24 29 40 49 17 21 42 52 57 69 15 17 28 34 28 39 0 19 19
4 30 -25 7 -18 16 -42 21 -53 5 -11 49 -123 99 -250 50 -126 95 -239 99 -250
27 -60 40 -105 31 -105 -6 0 -10 -4 -10 -9 0 -5 -39 -89 -86 -187 -48 -99
-114 -237 -149 -309 -34 -71 -97 -202 -140 -290 -189 -390 -225 -466 -225
-475 0 -6 -4 -10 -10 -10 -5 0 -10 -4 -10 -9 0 -5 -28 -67 -62 -138 -34 -70
-62 -130 -63 -133 -10 -30 -50 -107 -59 -112 -6 -4 -8 -8 -4 -8 4 0 -3 -19
-15 -43 -46 -86 -64 -79 176 -75 194 3 215 5 252 24 80 43 90 59 296 489 23
50 42 93 41 98 -1 4 1 7 6 7 4 0 13 15 21 32 14 33 62 134 211 443 43 88 107
223 144 300 113 235 116 239 117 183 0 -18 2 -46 4 -63 3 -16 7 -55 9 -85 3
-30 8 -74 11 -97 3 -24 8 -62 10 -85 6 -61 15 -148 30 -293 20 -192 25 -217
42 -245 25 -39 49 -59 95 -78 40 -16 97 -18 718 -17 661 1 675 2 672 21 -2 10
-6 26 -9 34 -4 8 -7 17 -8 20 -1 3 -8 21 -17 41 -9 20 -19 47 -23 60 -27 86
-95 166 -172 202 -50 23 -73 24 -805 27 l-77 0 -5 33 c-5 30 -10 81 -21 222
-3 33 -7 78 -10 100 -2 22 -7 72 -10 110 -3 39 -8 87 -11 108 -3 21 -7 68 -9
105 -3 37 -7 83 -10 102 -2 19 -7 66 -11 104 -5 57 -30 129 -151 430 -80 198
-148 367 -150 374 -4 9 38 12 190 12 l195 0 37 -72 c227 -442 224 -436 277
-464 15 -8 48 -14 73 -14 99 0 175 74 175 171 0 30 -12 64 -44 123 -24 44 -83
158 -131 251 -49 94 -91 172 -95 175 -3 3 -12 20 -20 38 -18 45 -96 125 -150
152 -89 46 -107 47 -645 44 -280 -1 -519 -4 -530 -6 -74 -15 -175 -68 -231
-123 -18 -16 -91 -104 -163 -195 -73 -91 -145 -181 -160 -200 -16 -19 -52 -64
-80 -100 l-52 -64 -184 -1 -185 0 0 822 0 821 81 4 c45 2 83 0 86 -5 2 -4 9
-5 14 -2 8 5 198 9 224 4 6 -1 14 -1 18 0 11 2 770 2 782 0 6 -1 14 -1 20 0
17 4 296 3 300 -1 2 -1 128 -1 280 2 152 3 279 2 282 -3 2 -4 9 -5 14 -2 11 7
218 9 225 2 3 -3 16 -2 29 2 14 3 123 5 245 3 l220 -3 0 -1484 0 -1485 28 -1
c147 -5 222 -35 305 -124 36 -39 87 -130 87 -157 0 -8 5 -19 10 -24 6 -6 12
-19 15 -30 2 -10 20 -62 40 -114 47 -127 46 -124 46 -130 -1 -3 -117 -6 -258
-6 -142 -1 -261 -2 -265 -3 -5 -1 -8 -144 -8 -318 l0 -318 294 -293 293 -292
361 0 362 1 0 2559 0 2560 -2560 0 -2560 0 0 -2555z"/>
<path d="M1853 4579 c-138 -25 -267 -150 -298 -289 -36 -162 47 -331 200 -408
191 -95 435 8 506 213 15 44 17 59 20 121 6 152 -105 297 -276 359 -29 11
-103 12 -152 4z"/>
<path d="M1380 587 c0 -3 132 -136 293 -296 l292 -291 283 0 283 0 -248 248
c-339 337 -343 339 -687 341 -119 1 -216 0 -216 -2z"/>
</g>
</svg>
